<svg width="27" height="25" viewBox="0 0 27 25" fill="none" xmlns="http://www.w3.org/2000/svg">
<path d="M23.4291 7.32999H17.4665C17.2942 7.32999 17.2185 7.21313 17.2185 7.12999C17.2185 7.04685 17.2942 6.92999 17.4665 6.92999H23.4291C23.6015 6.92999 23.6771 7.04685 23.6771 7.12999C23.6771 7.21313 23.6015 7.32999 23.4291 7.32999Z" fill="#23408F" stroke="#23408F"/>
<path d="M7.52875 7.32999H3.55366C3.38131 7.32999 3.30566 7.21313 3.30566 7.12999C3.30566 7.04685 3.38131 6.92999 3.55366 6.92999H7.52875C7.70111 6.92999 7.77675 7.04685 7.77675 7.12999C7.77675 7.20867 7.69521 7.32999 7.52875 7.32999Z" fill="#23408F" stroke="#23408F"/>
<path d="M15.2247 7.12999C15.2247 9.00466 13.5905 10.58 11.5038 10.58C9.41709 10.58 7.78296 9.00466 7.78296 7.12999C7.78296 5.25533 9.41709 3.67999 11.5038 3.67999C13.5905 3.67999 15.2247 5.25533 15.2247 7.12999Z" fill="#23408F" stroke="#23408F"/>
<path d="M23.4291 17.56H19.4541C19.2817 17.56 19.2061 17.4431 19.2061 17.36C19.2061 17.2768 19.2817 17.16 19.4541 17.16H23.4291C23.6015 17.16 23.6771 17.2768 23.6771 17.36C23.6771 17.4431 23.6015 17.56 23.4291 17.56Z" fill="#23408F" stroke="#23408F"/>
<path d="M9.51629 17.56H3.55366C3.38131 17.56 3.30566 17.4431 3.30566 17.36C3.30566 17.2768 3.38131 17.16 3.55366 17.16H9.51629C9.68865 17.16 9.76429 17.2768 9.76429 17.36C9.76429 17.4386 9.68276 17.56 9.51629 17.56Z" fill="#23408F" stroke="#23408F"/>
<path d="M19.1998 17.37C19.1998 19.2446 17.5656 20.82 15.4789 20.82C13.3922 20.82 11.7581 19.2446 11.7581 17.37C11.7581 15.4953 13.3922 13.92 15.4789 13.92C17.5656 13.92 19.1998 15.4953 19.1998 17.37Z" fill="#23408F" stroke="#23408F"/>
</svg>
