<?xml version="1.0" encoding="UTF-8" standalone="no"?>
<svg
   width="5.84375in"
   height="5.80208in"
   viewBox="0 0 561 557"
   version="1.1"
   id="svg1"
   sodipodi:docname="aa.svg"
   inkscape:version="1.3 (0e150ed6c4, 2023-07-21)"
   xmlns:inkscape="http://www.inkscape.org/namespaces/inkscape"
   xmlns:sodipodi="http://sodipodi.sourceforge.net/DTD/sodipodi-0.dtd"
   xmlns="http://www.w3.org/2000/svg"
   xmlns:svg="http://www.w3.org/2000/svg">
  <defs
     id="defs1" />
  <sodipodi:namedview
     id="namedview1"
     pagecolor="#ffffff"
     bordercolor="#000000"
     borderopacity="0.25"
     inkscape:showpageshadow="2"
     inkscape:pageopacity="0.0"
     inkscape:pagecheckerboard="0"
     inkscape:deskcolor="#d1d1d1"
     inkscape:document-units="in"
     inkscape:zoom="1.5350098"
     inkscape:cx="576.86927"
     inkscape:cy="486.96757"
     inkscape:window-width="1920"
     inkscape:window-height="1057"
     inkscape:window-x="-8"
     inkscape:window-y="-8"
     inkscape:window-maximized="1"
     inkscape:current-layer="svg1" />
  <path
     id="選取區域"
     d="m 247.00007,11.000003 c -0.78,2.769994 -2.44002,2.980003 -5,4.000001 l 2,2.000001 -4,1 1,12.000003 1,4.000001 c 3.58998,1.319998 4.06,9.52001 4,13.000004 l 1,3.000001 c 3.99998,1.379996 4.51,8.330011 4,12.000003 l 1.58984,0.830078 4.41016,17.169927 2,-1 3,3 -2,1.000001 c 6.35998,4.019992 9.33915,2.820378 13.36915,-2.84961 1.05998,-1.479998 1.99164,-2.490474 2.68164,-4.23047 1.42,-3.559994 -0.16078,-4.289939 3.94922,-10.919925 l -1,-1 h 1 v 1 l 3,2 1,10.000003 c 3.68998,2.299996 3.85,2.67001 4,7.000002 l 9,1 5,-4.000001 2,-1 c 1.5,-5.55999 7.87001,-23.940016 11.00001,-28.000008 l 3,-9.000002 4,10.000003 h 1 v -2.000001 l 3,15.000004 c 2.58,2.949994 3.45,9.130012 4,13.000004 l 2,-1.000001 1,6.000002 c 3.2652,0.706696 4.8899,1.187077 6.98047,0.980469 l -0.98047,-0.980469 h 1 v 0.978516 c 1.09945,-0.111011 2.29579,-0.356614 4,-0.978516 l -1,-3.000001 c 2.53,-2.119996 1.62,-5.800008 2,-9.000002 -2.77998,-3.469994 -5.01,-13.450015 -5,-18.000005 -3.09998,-1.219998 -2.32,-5.150008 -2,-8.000002 -2.80998,-1.099998 -2.15,-3.300008 -2,-6.000002 l -1,-4.000001 c -2.67,-4.019992 -4.56,-9.170014 -4,-14.000004 l -1,-2.000001 -2,1.000001 c -0.0482,-0.941458 -0.26156,-1.777991 -0.55273,-2.552735 l -0.44727,-0.447266 h 0.26172 c -2.5042,-5.568377 -10.82948,-6.415352 -14.26172,-2.000001 h -4.00001 l 3.00001,1.000001 c -5.53,4.84999 -8.05009,14.210019 -11.33009,21.000005 -2.20998,4.589992 -1.46992,6.340005 -6.66992,8.000003 -0.29,-3.609994 0.06,-5.680007 -3,-8.000003 l 1,-3 c -2.43,-0.83 -2.13,-1.550006 -2,-4.000002 l -9,-4.000001 -4.32032,4.310548 -2.67968,7.689456 c -3.23,2.389994 -2.94001,3.250008 -4.00001,7.000002 l -5,-2.000001 c 1.27,-6.559986 -1.82008,-10.379938 -3.83008,-16.169926 l -2.16992,-10.830081 -2,1 v -3.000001 l -4,1 -2,-5.000001 z m 80.26174,7.000002 c 0.0662,0.147302 0.12769,0.293327 0.18555,0.447266 l 0.55273,0.552734 v -1 z m 12.73828,66.978534 c -0.007,6.64e-4 -0.013,0.0013 -0.0195,0.002 l 0.0195,0.01953 z m -131.00003,-69.978535 1,3.000001 h 1 v 1 l -1,-1 -7,1 -0.96094,7.009768 c -0.05,5.829988 2.27,8.480259 0,17.990239 4.42998,5.589988 2.2718,9.760018 2.8418,16.000004 0.64998,7.049986 3.21912,9.060023 1.11914,18.000005 l 1.20312,2.000001 h -0.20312 v 1 l 0.50195,-0.501953 2.45703,4.082032 7.04102,4.419923 5,-1 1,-2 h 1 l -1,-3.000001 5,-1.000001 V 74.00002 c -0.54,-0.22 -0.88023,0.16992 -1.49023,-0.830078 l -1.50977,-11.169925 -2.74023,-30.990243 c -0.82,-5.689988 0.54021,-9.829771 -6.25977,-11.009769 -0.95,-4.41999 -2.92002,-4.260003 -7,-5.000001 z m 45.00001,2.000001 h 1 v 1 z m -36.00001,1 v 1 l 1,-1 z m -11,2 h 1 v 1.000001 z m 103.00002,0 h 1.00001 v 1.000001 z m 2.00001,0 h 1 v 1.000001 z m 85.00002,0 -14.00001,15.000005 -3,10.000002 c -2.94998,1.719998 -2.97,1.590008 -3,5.000002 -0.84018,0.510591 -1.83616,1.206962 -2.83008,2 h 0.83008 v 1.000001 h 1 v 1 l -1,-1 -0.91797,-0.917969 c -2.6513,2.137046 -5.17858,5.068382 -4.08203,7.91797 -4.02998,2.059996 -5.04,3.460011 -5,8.000003 l -4,1 -2,3.000001 c -0.81,6.629986 -3.44,5.980024 -1,16.000004 l 5,2.000001 8.82031,-4.019533 8.35938,-7.150392 h 12.82032 l 10.78906,3.550782 5.21094,7.619143 c 0.23,4.24999 1.10002,4.610005 5,6.000001 l -1,2.19922 c 1.67,0.05 3.29002,0.319998 5,0 10.11998,-0.48 6.96001,-10.339238 7.00001,-17.199224 l -2,-9.000002 c -2.28,-2.619996 -2.02,-4.65001 -2,-8.000002 l -2.00001,1 1.00001,-3.000001 c -0.17803,-0.259952 -0.37201,-0.989773 -0.5586,-1.441407 l 0.5586,-0.558594 h -0.7754 c -1.59987,-4.376028 -3.30197,-13.999849 -3.22461,-17.000004 h -2 l 1,-3.000001 -4,-14.000004 z m -22.91798,32.082041 c 0.031,-0.02497 0.0569,-0.05729 0.0879,-0.08203 h -0.16992 z m -48.08204,-31.08204 h 1 v 1 z M 139.8516,31.498056 c -2.2575,-0.41875 -4.63158,0.496955 -10.85156,1.501953 -0.35,3.389994 -1.10001,3.380005 -4.00001,5.000001 1.89,8.539984 -1.64922,17.660024 -3.19922,26.000008 l -1.85156,22.000006 -0.8789,14.169926 c -0.37,1.01 -1.11032,0.85008 -1.07032,0.83008 l 5,7 2,-2 4.57227,0.57226 -0.57226,-0.57226 h 1 v 0.625 l 3,0.375 c 0.53,-6.08998 4.9,-4.84002 4,-15.000005 l 3,-2 1.19922,-0.800782 -0.19922,-0.199219 -1,-1 h 1 v 1 h 0.5 l 1.5,-1 1,3.000001 4,-1 1,-3.000001 c 7.91998,1.699996 10.84024,-2.030076 14.49024,-0.580078 l 8.01953,6.820314 c 4.75,3.409994 8.70026,1.599996 13.49024,0 l 2,-7.240236 -3,-1.000001 2,-2 c -3.95,-3.899992 -5.28002,-8.700003 -11,-9.000003 l -3,-9.000002 -1,-1 -2,1 c -1.46,-4.219992 -1.99001,-4.990006 -6.00001,-7.000002 v -2.000001 l -5,-4.000001 3,1.000001 -2,-4.000002 -7,-4.000001 2,-2 -5,-3.000001 1,-2.000001 c -5.74998,-4.32999 -7.89094,-6.083206 -10.14844,-6.501954 z m 23.14844,24.501959 v -2 h -1 z m -21.5,33.000009 -0.30078,0.199219 0.80078,0.800782 v -1.000001 z m -11.5,17.625006 -0.42774,-0.0527 0.42774,0.42774 z m 2,-73.625021 h 1 v 1 z m 69.00002,0 v 1 l 1,-1 z m 271.00007,0 -8,3.000001 -3,2 v 9.000003 l -3,1 c 0.08,4.219992 -0.39001,7.600011 -3.00001,11.000003 v 7.000002 h -2 l -1,4.000001 v 11.000003 c -3.20998,2.489996 -4,7.190011 -5,11.000003 l 2,-1 c -4.16998,7.729984 -2.60998,8.930015 3,15.000005 h 3 l 1,-0.61133 v 0.61133 l 1.00001,-1 h -0.36524 l 5.75586,-3.51953 4.68946,-13.480476 1.91992,-6.000002 2,-12.000003 5,1 c 0.61,3.759994 4.23002,11.060006 8,12.000004 l -1,4.000001 c 2.84,1.019998 2.71938,3.190709 4.10938,5.720705 2.32,4.23999 5.66063,10.039301 9.89063,12.279301 l -1,4 8,9 -1,2 c 4.11998,0.66 8.32,2.76 11,-1 l 3,1 2,-5 h 2 c -0.04,-7.33998 9.07,-22.010027 8,-32.000007 2.82,-0.909998 2.22001,-2.320006 2.00001,-5.000002 2.88998,-2.389994 3.4,-6.41001 3,-10.000002 3.59998,-2.789996 5.35898,-11.640714 1.45898,-14.970708 -1.76,-1.509996 -7.05899,-2.489299 -9.45899,-3.029297 l -3,3.000001 c -0.58,2.789994 -1.15,3.480001 -4,4.000001 v 8.000002 l -2,-1 c 0.21,5.289988 -1.35,11.090012 -5,15.000004 l 1,4.000001 -1,3.000001 -3,3 -3,-1 c -0.45,-3.719992 -1.82002,-5.140006 -5,-7.000002 l -3,-10.000003 h -2 l -0.57227,-1.572266 -0.42773,-0.427734 h 0.27343 l -3.27344,-9.000003 h -2 l 1,-2 -11.15039,-18.699224 -6.74024,-5.410158 0.89063,-0.890625 h -1 v 0.802735 z m 23.27344,36.00001 0.1543,0.427734 0.57227,0.572266 v -1 z M 287.00008,34.000009 h 1 V 35.00001 Z M 143.00004,35.00001 h 1 v 1 z m 326.00009,0 h 1 v 1 z m -183.00005,1 h 1 v 1 z m 2,0 h 1 v 1 z m 190.00005,4.000001 h 1 v 1 z m -160.00004,1 h 1 v 1.000001 z m -18.00001,1.000001 h 1 v 1 z m -35.00001,3 h 1 v 1.000001 z m 213.00006,0 h 1 v 1.000001 z m -328.00009,1.000001 h 1 v 1 z m 98.00003,0 h 1 v 1 z m 66.00002,0 h 1 v 1 z m 84.00002,0 4,19.000005 c -3.1,1.149998 -3.07,1.579996 -6,0 l -3,2 -5,-4.000001 c 1.97998,-6.769986 4.5,-12.300014 10,-17.000004 z M 75.960958,46.630872 c -1.073748,0.0081 -2.338442,0.134141 -3.960938,0.369141 v 4.000001 l -4.000001,-2.000001 v 2.000001 l -13.000004,2.000001 c -1.319998,3.669992 -13.170011,6.850003 -17.000005,7.000001 l -10.000002,8.000003 -3.000001,-1.000001 -1,2.000001 h -1.000001 c 0.2,1.999996 0.360237,4.030943 0.990235,5.960939 3.289994,10.04998 13.709077,4.068829 18.289067,3.798829 2.579996,-0.529998 4.220711,-0.16 6.720705,0 0.21,4.549992 1.28001,6.090241 5.000002,8.240237 v 5.000001 c 4.259992,4.249992 8.300004,12.010025 9.000002,18.000005 l 5.000002,4 -2.000001,2 4.000001,6 11.000003,1 v -4 l 3.000001,1 c 3.009994,-10.63998 -4.060001,-17.75002 -4.000001,-25.000004 l -8.000002,-15.000004 1,-4.000001 c -5.14999,-6.459988 1.270016,-12.850006 8.000002,-14.000004 v -2.000001 l 2.000001,1.000001 2,-11.000003 c -4.31249,-2.354996 -5.817821,-3.393517 -9.039065,-3.369142 z m 317.039152,0.369141 h 1 v 1 z m -190.00005,5.000001 v 1.000001 l 1,-1.000001 z m 186.00005,2.000001 h 1 v 1 z m -244.00007,2 h 1 v 1.000001 z m 389.00011,0 h 1 v 1.000001 z M 80.000022,57.000016 h 1 v 1 z m 2,0 h 1.000001 v 1 z m 40.000008,0 v 1 l 1,-1 z m 20.00001,0 10,9.000002 -2,2.000001 3,4.000001 -2,1 v 1 l -9,2.000001 1,-2.000001 -4,1.000001 c -0.44,-2.469996 -1.14,-3.430004 1,-5.000002 -1.12,-4.70999 -0.2,-8.720013 2,-13.000003 z m 1,0 h 1 v 1 z m 82.00002,0 v 1 l 1,-1 z m 297.00008,0 h 1 v 1 z m -272.00007,1 v 1 l 1,-1 z m -105.00003,1 h 1 v 1 z m 18,0 h 1 v 1 z m 3.00001,2.000001 h 1 v 1 z m -91.000029,1 h 1 v 1 z m 203.000059,0 h 1 v 1 z m 3,0 h 1 v 1 z m -4,1 h 1 v 1.000001 z m 109.00003,0 h 1 v 1.000001 z M 69.000019,64.000018 h 1 v 1 z m 237.000061,0 h 1 v 1 z m 228.00007,0 h 1 v 1 z m -206.00006,3 h 1 v 1.000001 z M 69.000019,68.000019 h 1 v 1 z m -44.000012,2 h 1 v 1 z M 304.00008,73.00002 h 1 v 1 z m -150.00004,2.000001 h 1 v 1 z m -14,1 h 1 v 1 z m 357.0001,0 h 1 v 1 z m -359.0001,1 h 1 v 1 z m 284.00008,0 h 1 v 1 z m -373.000107,1 h 1.000001 v 1.000001 z m 222.000057,0 h 1 v 1.000001 z m 72.00002,0 h 1 v 1.000001 z m 31.00001,0 h 1 v 1.000001 h 1 v 1 l -1,-1 z m 92.00003,0 h 1 v 1.000001 z m -284.00008,2.000001 h 1 v 1 z m 108.00003,0 h 1 v 1 z m 6,0 h 1 v 1 z m 2,1 h 1 v 1 z m -248.000066,1 h 1 v 1.000001 z m 159.000046,0 h 1 v 1.000001 z m 81.00002,0 h 1 v 1.000001 z m 47.00001,1.000001 h 1 v 1 z m -126.00003,1 h 1 v 1 z m 54.00001,0 h 1 v 1 z M 55.000015,86.000024 h 1 v 1 z m 305.000085,0 h 1 v 1 z m 126.00003,0 h 1 v 1 z m -349.00009,1 h 1 v 1 z m 32.00001,0 h 1 v 1 z m -35.00001,1 h 1 v 1 z m 2,2.000001 h 1 v 1 z m 35.00001,0 h 1 v 1 z m 11,0 h 1 v 1 z m 308.00008,0 h 1 v 1 z m -68.00001,4.000001 h 1 v 1 z m 26,2 h 1 v 1.000001 z m 3,6.000004 h 1 v 1 h 1 v 1 l -1,-1 z m -381.000101,18 h 1 v 1 z m 160.000041,11.00001 -1,3 -5,-1 -8,9 -2,-1 c -3.45,8.20998 -6.79992,13.79002 -5.41992,23 0.43998,2.92 0.17992,4.01001 2.41992,6.00001 l -1,3 c 3.11998,3.19998 8.22,11.69002 9,16 3.71,3.28 10.2,12.17001 11,17.00001 5.86,1.67998 8.56001,13.48 15.00001,17 l 0.14258,1 h 0.85742 v 1 l -0.83399,-0.83398 0.83399,5.83398 5,2 c 0.71,4.94 3,6.32001 6,10.00001 l -2,-1 c 3.89,10.00998 2.35,10.66002 -1,20 -5.46998,-0.32 -11.89001,2.04 -17.00001,4 l 1.00001,-2 c -11.59998,5.16 -26.50004,6.12985 -39.00002,7.83985 l -8,1.85937 -28.00001,2.36133 h -24.2793 l -23.72071,-2.06055 2,-1 -13,-1.41015 c -9.689984,-1.54 -20.19003,-4.70914 -30.00001,-2.86914 -5.409988,1.01 -11.960005,2.1993 -13.000003,8.2793 -0.372754,0.0799 -0.656782,0.32213 -1.000001,0.45898 v 0.54102 h 1.000001 v 1 l -1.000001,-1 -0.371093,-0.3711 c -3.120605,1.46737 -5.04541,5.05536 -5.917971,8.3711 -1.179998,4.48998 -0.710937,21.29001 -0.710937,27.00001 l 8.000002,0.91015 c 8.369982,0.57 9.740023,-0.52023 19.000005,2.00977 6.619986,1.81 17.520018,6.60008 24.000008,6.08008 3.04,3.67998 14.12002,5.09047 19,6.23047 10.93998,2.56 25.85003,4.84953 37.00001,4.76953 h 22.00001 l -1,-2 11,1 c 2.66,-1.44 10.25001,-1.84961 14.00001,-2.59961 6.25998,-1.26 12.60002,-2.94055 19,-3.31055 7.08998,-0.4 19.24003,2.41916 26.00001,4.86914 l 7,2.82032 17.00001,4.32031 31,1.90039 v 7 l -3,4.00001 -6.96094,5.89062 -17.03906,9.89844 -10.00001,2 -18,-1.78906 -1,-4 -2,2 -8,-10 -6.00001,-4 -1,-7.00001 -2,-2 -2,1 c -1.81,-4.60998 -4.71,-3.47 -9,-3 -2.95,5.7 -10.77002,10.81001 -17,12.00001 l 1,2 -10.00001,0.82031 c -5.22998,0 -16.17,-2.30032 -18,-7.82032 l -7,-4 2,-2 -1,-1 -2,2 v 1 l -1,-1 h 1 l -1,-3 -5.00001,1 -2,1 -6,8.00001 c 0.28,2.06998 -2.26,2.35 -4,3 -0.52,4.38998 -3.71002,6.8 -8,7 -1.62,5.34998 -13.73001,8.88 -19.00001,9 -3.49998,2.61 -14.78002,3.21086 -19,2.13086 -5.929992,-1.53 -6.900019,-3.76086 -14.000005,-3.13086 l -3.000001,-2 v 1 l -1,-1 h 1 l -1,-3 -2.000001,1 -12.000003,-12 -5.000002,-11.00001 -3,1 1,-2 c -2.999994,0.34 -8.220398,-0.19039 -10.400394,1.84961 -2.339994,2.19 -1.599609,9.9704 -1.599609,13.1504 v 34.00001 l 1,3 1,3 c 2.579994,0.74 4.780004,5.58 6.000002,8 l 2,-2 2.000001,5 11.000003,4 v 2 l 13.000003,3.39063 c 8.289984,1.54 13.089326,1.25008 21.279306,1.33008 4.16998,0.04 14.33072,-0.0707 16.7207,-3.72071 l 11.53907,-3.46094 -0.53906,-0.53906 h 1 v 0.40039 l 8,-2.40039 -1,-2 15,-4 v -2 c 2.38,-0.14 2.30002,0.29 3,-2 l 11.00001,-1 4,-1 c 7.83998,-5.77 26.41003,1.5 34.00001,0 v 3 l 5,1 v -2 c 4.85998,4.60998 12.13002,8.89 19,8 l 1.00001,4 9.16015,3.13086 h 5.41993 l 12.41992,2.5 11.91016,-0.77148 15.08985,-3.85938 1,-3 c 3.32,-0.2 3.25,-0.16 5,-3 5.55,1.06 17.92001,-5.97002 23.00001,-9 l -1,2 8,-1 c 5.66998,-4.18 20.99987,-2.73008 27.83985,-1.33008 4.86,0.99 4.65018,2.58008 10.16016,1.33008 l 9,8 14.08985,6.05078 10.91016,4.94922 21.00001,2.43946 7,-1.23047 c 3.70998,-0.5 7.86,1.05101 9,-3.20899 5.47998,0.74 14.69002,-0.77002 16,-7 l 4.00001,2 -1.00001,-2 c 6.27,0.54 9.07001,-1.99953 15.00001,-3.51953 10.05998,-2.59 28.63001,-0.88051 31.00001,-14.48047 l 2,2 c 3.42998,-8.64 6.46969,-13.43003 6.92969,-23.00001 0.11,-2.4 0.43006,-7.38024 -1.66992,-8.99024 -3.23,-2.49998 -13.44979,1.59022 -15.25977,-2.00976 -5.14,1.04 -7.34001,0.97998 -11.00001,-3 6.24,1.16998 7.66001,-0.83102 14.00001,-0.79102 h 10.86914 c 4.22,-0.69 3.65023,-7.14869 1.24023,-9.63867 -1.94998,-2.01 -6.48939,-1.9104 -9.10937,-1.9004 h -10.00001 l -38.00001,1.81055 h -11 c -5.69998,0.26 -17.69002,1.22953 -20,-5.48047 l -3.00001,1 -3,-3 2,-3 c -2.46998,-5.84998 -0.04,-5.38002 0,-11 l 5.00001,-4 h 57.00001 c 9.62998,0 23.13003,1.30998 32.00001,-2 -3.38,-11.56998 -6.08002,-18.36003 -12,-29.00001 l -3,1 1,-3 c -4.43,-1.63 -0.91001,-5.93 -7.00001,-6 -1.56998,-6.38 -7.33086,-11.8394 -12.13086,-16.10938 -2.41,-2.15 -3.66914,-4.10063 -6.86914,-2.89063 -1.19,-2.96 -0.99002,-2.92 -4,-4 l 2,-1 h -4 c -2.54,-4.85 -6.27001,-8.46 -12.00001,-8 -2.74998,-5.37 -8.64002,-6.69001 -14,-9.00001 -0.95,2 -1.88,1.26 -4,1 l 2,-1 -4,-3 c -6.18,0.55 -17.79003,-3.10008 -25.00001,-3.83008 l -42.00001,-1.16992 c -4.38,-0.06 -8.52,-0.22 -10,-5 l -16.00001,-12 1,-3 -6,-1 -1,-1 1,-2 c -2.98,-2.26 -4.5,-3.15001 -5,-7.00001 h -4 c -0.83708,-2.80067 -1.07444,-4.44509 -3,-5.36914 v 0.36914 l -0.53906,-0.53906 c -0.44769,-0.16557 -0.83283,-0.35122 -1.46094,-0.46094 l -5,-8 c -3.63,-0.73 -6.33001,-3.34002 -7.00001,-7 l -1,-1 c -5.3234,-0.47203 -11.3515,-9.55509 -16,-14.78321 v 0.7832 l -1,-1 -4,-5 -3,1 -3,-4 v 1 l -1,-1 h 1 c -1.76,-8.47998 -14.30001,-11.79002 -16.00001,-16 l -16,-3.25977 z m 61.00002,28 h 0.80469 c -0.59854,-0.66392 -1.26181,-1.50936 -1.80469,-2 z m 0.80469,0 c 0.0648,0.0719 0.12989,0.14322 0.19531,0.2168 v -0.2168 z m 30.65626,31.46095 c 0.16517,0.0611 0.39465,0.10062 0.53906,0.16992 v -0.63086 h -1 z m -183.46099,216.93951 -0.46094,0.13867 0.46094,0.46094 z M 59.628923,276.62898 c 0.123316,-0.058 0.243781,-0.11916 0.371093,-0.16992 v -0.45898 h -1 z m 185.537157,-52.4629 -0.0234,-0.16602 h -0.14258 z m 212.586,-92.70901 c -4.5078,0.28662 -8.40321,1.92362 -8.75196,7.54297 -8.11998,5.23998 -2.31,12.98002 -2,19 h 5 v 4 c 5.59,0 8.97001,0.69 14.00001,-2 l -1,2 c 2.35,-1.15998 13.13998,-7.27 8,-10 l 3,-1 v -9 l -5,-3 1,-3 -4,-4 c -1.6375,-0.0975 -3.6047,-0.33407 -5.64453,-0.47657 -1.52989,-0.10687 -3.10092,-0.16194 -4.60352,-0.0664 z m 6.24805,0.54297 h 1 v 1 z m -203.00006,4 h 1 v 1 z m 208.00006,2 h 1 v 1 z m -21.00001,2 h 1 v 1 z m 2,0 h 1 v 1 z M 113.918,153.64067 c -5.99012,0.37099 -10.95469,4.47813 -11.14844,12.35938 -0.12,4.78998 2.77047,8.22 5.23047,12 h 5 c 2.66,4.14998 8.17002,6.47 13,6 2.06,3.39 11.37001,9.84 15.00001,7 l 4,6 4,-1 c 2.25,3.37 5.24002,5.04 9,3 l 3,6.00001 13.00001,3 c 1.34,3.27998 1.88961,2.52961 4.84961,4.09961 1.78,0.94 3.1907,2.18008 5.2207,2.58008 4.6575,0.92535 6.05488,-1.1682 5.6875,-3.92188 l -0.75781,-0.75781 h 0.53906 c -1.02046,-4.32717 -5.7775,-9.69445 -9.53906,-8 v -4.00001 l -3,1 v 1 l -1,-1 h 1 c -1.31,-3.10998 -1.87002,-2.69 -5,-2 l 1,-3 -3,-4 h -1 l 1,2 c -4.45,-3.91998 -14.48001,-14.23 -20.00001,-15 l -4,-3 -3,-3 1,2 c -5.70998,-5.06 -5.22002,-9.16999 -12,-9.00001 v 1.00001 l -1,-1.00001 h 1 v -4 h -4 l -4.00001,-5 1,2 c -3.52498,-2.45998 -7.48795,-3.58197 -11.08203,-3.35937 z m 75.62111,56.35939 c 0.0592,0.2508 0.18646,0.51577 0.21875,0.75781 l 0.24219,0.24219 v -1 z m 282.46102,-56.00002 h 1 v 1 z m -195.00005,1 h 1 v 1 z m 194.00005,1 h 1 v 1 z m -193.00005,1 h 1 v 1 z m -171.00005,3 h 1 v 1 z m 183.00005,0 h 1 v 1 z m -165.00005,1 h 1 v 1 z m 2,1 h 1.00001 v 1 z m 163.00005,2 h 1 v 1.00001 z m 116.00003,0 -7,9.00001 -1,-1 -2,1 c -0.26,4.13998 -1.47914,7.72994 -0.61914,12.16992 0.59,3.07 2.21992,5.02088 4.41992,7.13086 7.35998,7.04 12.13923,4.32922 21.19923,3.69922 v -5 h 2.66601 l 0.33399,-1 3,-1 -1,-3 2,1 -2,-14 -2,2 v -4 l -3,-1 c -1.1,-5 -4.75001,-4.30001 -9.00001,-6.00001 l 1,2.00001 z m 17.66602,27.00001 -0.66601,2 1,-2 z m -125.66605,-23 h 1 v 1 z m -1,1 h 1 v 1 z m 124.00004,2 h 1 v 1 z m -307.00009,4 h 1 v 1 z m 101.00003,2 h 1 v 1 z m -99.00003,2 h 1 v 1 z m 36.00001,0 h 1 v 1 z m 67.00002,2 h 1 v 1 z m -88.00002,6 h 1 v 1 z m 29,1 h 1 v 1 z m -3,1 h 1 v 1 z m -9,2 h 1 v 1 z m 18.00001,1 h 1 v 1 z m 2,1 h 1 v 1 z m 247.00006,0 h 1 v 1 z m -347.373138,1.26368 c -1.23365,0.05 -2.456019,0.21539 -3.666017,0.52539 -7.479984,1.92998 -9.49055,5.99094 -9.81055,13.21094 -0.269998,1.53 -0.469998,3.41937 0,4.85937 1.079998,2.12 4.069615,3.62063 5.849611,5.14063 l -2,-1 c 5.579988,6.88998 9.150019,4.38992 17.000005,5.41992 l 11.000003,0.66992 13.830081,1.60938 22.169925,1.45117 c 3.26,0.39 17.29065,1.78905 19.64063,0.53907 0.0111,-0.006 0.0164,-0.0155 0.0274,-0.0215 l -0.66797,-0.66797 h 1 v 0.39844 c 2.41564,-1.70846 1.66874,-5.46095 0,-7.86133 v 0.46289 l -1,-1 h 0.55078 c -0.2753,-0.3233 -0.50945,-0.744 -0.81055,-0.9707 -2.74998,-2.06 -14.33024,-4.3793 -17.74024,-4.0293 l 1,-2 -18,-5 c -2.3,-2.82 -9.150714,-3.64963 -12.720708,-4.59961 -7.918734,-2.10875 -17.016802,-7.48659 -25.65235,-7.13672 z m 73.923848,23.73633 c 0.15243,0.17901 0.30849,0.33467 0.44922,0.53711 v -0.53711 z m 0.44922,8.39844 c -0.11911,0.0842 -0.19726,0.19635 -0.33203,0.26953 l 0.33203,0.33203 z M 71.000019,195.00005 h 1.000001 v 1 z m 95.000031,1 h 1 v 1 z m 4,0 h 1 v 1 z m -113.000034,3 h 1 v 1 z m 102.000024,1 h 1 v 1.00001 z m 19.00001,0 h 1 v 1.00001 z m -120.000034,2.00001 h 1 v 1 z m 115.000034,1 h 1 v 1 z m 10,0 h 1 v 1 h 1 v 1 l -1,-1 z m 52.00001,2 h 1 v 1 z m 104.00003,2 h 1 v 1 z m -164.00004,2 h 1 v 1 z m -61.00002,1 h 1 v 1 z m 66.00002,0 h 1 v 1 z m -63.00002,1 h 1 v 1 z m 227.00006,4 h 1 v 1 z m 2,1 h 1.00001 v 1 z m -4,1 h 1 v 1 z m 6.00001,1 h 1 v 1 h 1 v 1 l -1,-1 z m 3,3 h 1 v 1 z m -105.00003,1 h 1 v 1 z m -105.00003,1 h 1 v 1 z m 211.00006,0 h 1 v 1 z m -264.000076,1 v 1 l 1,-1 z m 268.000076,2 h 1 v 1 z m -7,1 h 1 v 1 z m 11,1 h 1 v 1 z m 3,0 h 1 v 1 z m -112.00003,1 h 1 v 1 z m 194.00005,13.00001 h 1 v 1 z m 3,1 h 1 v 1 z m -190.00005,11 h 1 v 1 z m 0,3 h 1 v 1 z m -2,1 h 1 v 1 z m 216.00006,1 h 1 v 1 z m 2,1 h 1 v 1 z m -218.00006,1 h 1 v 1 z m 99.00003,0.49024 7.64453,1.15429 -0.64453,-0.64453 h 1 v 0.69727 l 2,0.30273 -1,2 2,-2 h 1 c 1.93,3.06 5.55002,8.80002 9,10 l 2.56055,11.00001 1.43945,11 -3,7 -12,9.70899 -19.00001,3.29102 -1,-1 v 1 l -1,-1 h 1 l -5,-5.00001 -6,1 c -0.63,-5.19998 -2.83977,-4.42103 -4.75977,-9.04101 -3.10998,-6.73 -3.06998,-18.35878 0,-24.96876 1.87,-3.62 2.45979,-6.40024 6.75977,-6.99024 v -4 l -1,-1 h 1 v 1 l 2,2 3,-5 z m 8,1.20703 -0.35547,-0.0527 0.35547,0.35547 z m -25.00001,-0.69727 h 1 v 1 z m 73.04299,0.66016 c 3.04375,-0.1075 6.40704,0.56484 9.95704,0.33984 l 5.03906,7.17969 2.96094,8.82032 c -2.01,2.87998 -3.47002,7.07 -7,8 l -2,5.09961 h -9.00977 l -11.99024,-2.09961 v -1 l 2,-1 c -5.58998,-8.02998 -2.21,-13.69001 -4,-21.00001 h 6 c 2.275,-3.34498 4.99922,-4.23234 8.04297,-4.33984 z m -42.04298,0.33984 h 1 v 1 z m 112.00003,1 1,3 c -1.78,-1.31 -1.86,-0.95 -1,-3 z m -79.00002,1 h 1 v 1 z m 76.00002,3 h 1 v 1 z m -287.00008,3 v 1 l 1,-1 z m 138.00004,2 h 1 v 1.00001 z m -1,2.00001 h 1 v 1 z m 160.00004,1 h 1 v 1 z m -2,1 h 1 v 1 z m -134.08792,2.34179 c -1.20532,-0.048 -2.4118,0.18789 -3.5918,0.83789 l -5.32032,4.82032 c 1.31,4.01998 1.36001,9.33 6.00001,10 0.67998,1.71 2.04,4.06 3,1 l 5,1 1,-6 -1,-1 h 1 v 1 l 1,3 3,-1 -1,-2 c 2.23,-2.21 1.03,-3.98002 1,-7 -2.865,-1.8075 -6.47197,-4.5143 -10.08789,-4.65821 z m 7.08789,4.65821 h 1 v 1 z m 43.00001,4 v 1 l 1,-1 z m -4,4 h 1 v 1 z m 4,0 h 1 v 1 z m -70.00002,11 v 1 l 1,-1 z m 9,10.00001 h 1 v 1 z m -257.000067,1 h 1 v 1 z m 264.000077,1 h 1 v 1 z m 66.00001,10 h 1 v 1 z m 0,4 h 1 v 1 z m -159.00004,1 h 1 v 1 z m 107.20315,0.91992 c 2.14875,-0.1425 4.39688,0.0751 6.79688,0.0801 2.63,0.01 6,-0.78 7,2 6.65,-1.01 20.82001,1.40002 25.00001,7 14.22998,0.32 21.43005,13.04907 38.00001,12.78907 h 18.45899 c 1.26,0.34 1.08102,0.72094 1.54102,1.21094 h 6 l -10.13086,7.16016 -0.86915,1.83984 c -4.76998,0.2 -13.87002,4.49947 -19,6.18945 l -13,1.49024 c -11.36998,0.85 -21.39003,-6.22969 -26.00001,-6.67969 l -1,-4 -3,1 c -2.33,-5.18 -3.83001,-6.01002 -9.00001,-8 v 1 l -1,-1 h 1 l 1.00001,-3 -1.00001,-4.00001 c -2.40434,-0.71344 -4.29047,-4.04588 -6,-4.74023 v 0.74023 l -0.86328,-0.86328 c -0.38402,0.0913 -0.76275,0.30895 -1.13672,0.86328 l -2.36523,-1.77343 c -10.47269,5.4726 -13.22709,11.87171 -25.92579,13.9043 -3.6,0.57 -9.17899,0.69912 -11.70899,-2.13086 l -3,1 -7,-7.00001 -11,-8 v -3 l 3,2 9.16992,-2.07031 26.83009,-1.92969 v -2 l 3,2 c 2.005,-1.435 4.05439,-1.93758 6.20312,-2.08008 z m 10.43165,9.30665 c 0.14125,-0.0738 0.2211,-0.15311 0.36523,-0.22657 l -2,-1 z m 3.50195,0.91015 c 0.28097,-0.0668 0.57319,0.005 0.86328,0.12305 v -0.25977 h -1 z m 19.86329,-6.13672 h 1 v 1 z m 28.00001,5 h 1 v 1 z m -102.00003,7.00001 h 1 v 1 z m -104.00003,1 h 1 v 1 h 1 v 1 l -1,-1 z m 106.00003,0 h 1 v 1 z m 38.00001,0 h 1 v 1 z m -146.00004,1 h 1 v 1 z m 104.00003,0 h 1 v 1 z m 66.00002,2 v 1 l 1,-1 z m 75.00002,1 h 1 v 1 z m 21,1 h 1 v 1 h 1 v 1 l -1,-1 z m -408.00011,1 h 1.000001 v 1 z m -1,1 h 1 v 1 z m 115.00003,1 h 1 v 1 z m -44.00001,3 h 1 v 1 z m 250.00007,2 h 1 v 1 z m -310.000087,2 h 1 v 1 z m 4.000001,1 1,1 v -1 z m 199.000056,0 h 1 v 1 z m 2,0 h 1 v 1 z m 3,0 h 1 v 1 z m -1,1 h 1 v 1 z m -185.00005,3 v 1 l 1,-1 z m 399.00011,14 h 1 v 1 z m -301.00008,9.00001 h 1 v 1 z m -34.00001,1 h 1 v 1 z m 40.00001,0 h 1 v 1 z m 152.00004,1 h 1 v 1 z m -134.00004,7 h 1 v 1 z m -95.00002,7 h 1 v 1 z m 149.00004,1 h 1 v 1 z m 165.00004,0 h 1 v 1 z m -363.000097,2 h 1 v 1 z m 193.000057,0 h 1 v 1 z m 162.00004,0 h 1 v 1 z m -17,4 h 1 v 1 z m -54.00002,38.00001 -2,2 c -3.44,-1.76998 -6.71,-1.17998 -9,2 l -2,-1 -1,2.00001 h -0.99024 v 8.03906 c 1.31,9.99998 8.45026,9.13094 15.99024,9.96094 l 6,-9 -2.81054,-8.83008 z m 1,3 h 1 v 1 z m -14,3.00001 h 1 v 1 z m -1,1 h 1 v 1 z m -265.162185,4.25 c -5.43749,0.655 -10.4879,2.715 -12.837894,6.75 -0.9471,0.18032 -1.707605,0.62043 -2.51172,1 h 0.511719 v 1 l -0.861328,-0.86133 c -3.932415,2.0312 -6.130524,6.19985 -6.138674,10.86133 -2.669994,2.4 -2.250311,6.59002 -1.820313,10 1.529998,12.10998 14.240339,17.3597 23.820319,22.1797 2.999994,1.51 9.19992,5.19969 6.919924,9.42969 -1.739996,3.24 -6.08993,3.27062 -8.919924,1.64062 -4.189992,-2.40998 -10.579162,-10.92023 -18.869146,-5.24023 -5.669988,3.86998 -5.590847,12.54024 0.869141,15.99024 0.989998,4.41998 5.00001,5.95906 9.000002,7.53906 7.62774,3.00326 22.044169,3.58706 28.775399,-2.76367 l -0.77539,-0.77539 h 1 v 0.49609 c 0.75596,-0.75642 1.47886,-1.54409 2,-2.49609 1.88,-0.27 3.94,-0.65 1,-2 1.47,-0.78 3.06094,-1.45946 4.21094,-2.68946 5.25998,-5.61998 4.76904,-18.68057 -5.21094,-24.31055 l 1,-2 c -5.68998,-3.51 -10.970019,-9.94 -18.000005,-10 -4.91999,-9.04998 -5.490004,-2.20003 -7.000002,-15.00001 l 11.000003,-2 c 0.57,2.92 7.259064,12.16977 10.039064,13.25977 5.86,2.29 11.88001,-2.34977 12.75001,-8.25977 1.04998,-7.25998 -2.89907,-9.39002 -5.78907,-15 -3.38,-0.87 -5.49002,-3.64032 -9,-5.07032 -3.9,-1.58498 -9.724625,-2.33468 -15.162115,-1.67968 z m 18.162115,77.24611 c -0.0847,0.0848 -0.13727,0.19689 -0.22461,0.2793 l 0.22461,0.22461 z M 73.138692,471.1388 c 0.109056,-0.0563 0.237741,-0.0859 0.349609,-0.13867 H 73.00002 Z m 97.718778,-6.01758 c -2.9225,0.001 -5.84243,0.9983 -7.85743,2.98828 l 2.00001,-1.10937 c -1.47,1.29 -3.72024,2.589 -4.74024,4.20898 -3.91,6.21 1.70063,13.54104 4.14063,18.79102 l 9.57031,21.00001 c 2.97,5.73998 7.2393,12.45001 7.0293,19.00001 4.81998,1.71998 3.97955,9.94969 8.26953,12.92969 2.25,1.44998 5.97049,2.47998 7.73047,0 l 8.00001,-0.92969 v -6 h 5 l -1,-3 2,1 -1,-3 3,1 v -1 l -1,-1 h 1 v -2.00001 h 4 l 1,-5 3,1 1,-3 10,1 -2,1 6,3 -1,-1 h 1 v 1 l 2.00001,1 1,1 -1,2.00001 3,1 7,11 5,-2 c -3.01,6.05998 4.01002,5.26 8,6 l 3,-2 v -3 l 2,1 1,-1 -1,-4 c 5.02,-1.06 10.96001,-9.91001 11.00001,-15.00001 l 3,1 c 0.38,-6.94998 7.10922,-4.42937 10.69922,-1.35937 l 3.16016,3.60937 c 1.32998,1.04 1.23062,0.52 2.14062,0.75 l 3,5.00001 -1,2 6,5 -2,-1 2,5 4,-1 c 5.56,8.73998 11.15001,-1.73 15.00001,-3 l 7.50977,-21.26954 4.49023,-10.73047 c 0.12,-4.01 0.36002,-4.95002 3,-8 0.69,-6.37 4.4293,-12.50026 2.0293,-18.99024 -1.63,-4.41 -4.3593,-5.46979 -7.0293,-10.00977 -1.91715,0 -5.62479,-0.93261 -9,-0.73242 v 0.73242 l -0.75977,-0.75977 c -3.67774,0.44593 -6.73819,2.62582 -6.24023,9.75977 l -1,1 -2,-1 c 0.39,3.91 0.46998,4.87002 -2,8 l -3.00001,14.00001 c -5.62998,-2.67 -8.73,-6.69001 -9,-13.00001 -4.35998,-4.57998 -5.00063,-13.3408 -10.14063,-17.30078 -6.46998,-4.98 -17.50936,-1.6492 -16.85938,7.30078 l -5,2 1,3 -2,-1 c -0.17,2.97 -1.17998,4.80002 1,7 l -6,3 2,3.00001 -6.2207,5.53906 -6.7793,2.46094 -8,-18.00001 c -2.96,-2.76998 -4.73002,-4.84 -5,-9 l -1.00001,-1 -2,1 v -4 c -6.69998,-4.9 -7.00002,-3.86 -15,-3 l -2,2 c -0.58,3.1 -2.11086,3.53969 -3.63086,6.17969 -2.08,3.61998 -6.51914,14.00032 -6.36914,17.82032 l -4,1 -1,2 c -1.41,5.62998 -4.13001,4.43 -9.00001,5 l -4,-10.00001 h -3 c 0.29,-5.05998 -4.69955,-20.16063 -8.26953,-23.89063 -2.025,-1.99498 -4.95055,-2.98953 -7.87305,-2.98828 z m 152.38285,3.11914 c 0.24847,-0.0301 0.50654,0.0423 0.75977,0.0274 v -0.26758 h -1 z m 175.74224,-2.85742 c -1.99969,-0.11625 -3.95744,0.41445 -5.98242,0.37695 -8.52,11.94998 -5.25946,6.45933 -9.43946,19.52931 -1.36,4.23998 -2.95055,6.10094 -2.56055,10.71094 l -1,2 c -1.63,0.73 -4.32078,2.41937 -6.05078,2.10937 -3.09,-0.56 -4.7993,-4.62953 -6.2793,-7.01953 l -3.98047,-6.00977 -2.74023,-7.25 -4.94923,-9.83008 -2,1 -1,-4 -9,-1 -6,3 -5,10 c -0.08,3.5 -1.57002,11.71002 -5,13 -0.79,10.89998 -8.55001,10.81999 -10.00001,4.00001 -2.58998,-0.97 -2.18,-2.47001 -2,-5.00001 -2.72998,-3.21998 -2.78,-5.87 -3,-10 l -4,-12 c -5.72998,0.38 -10.25002,-1.98998 -14,4 l -3,-1 -6,12 2,-1 2,17.00001 c 2.85998,3.03998 3.02,3.85 3,8 l 1,3 c 2.84,3.08 2.76,3.90002 3,8 3.64,1.31 3.46,5.70002 3,9 l 2,5.00001 8,12 2,-1 c 3.8,4.77998 9.27001,1.56 14.00001,0 0.96,-3.35 7.8,-9.40002 11,-11 l -1,-3 c 3.48,-0.71 3.35,-0.87001 5,-4.00001 3.15,-0.45 3.15,-1.03 4,-4 6.89,0.5 8.68001,-0.95998 14.00001,5 l 2,-1 8.83008,10.24024 h 1.16992 l 6,7.75977 c 5.25,-0.64 13.67002,0.33998 15,-6 l 3.00001,-1 1,-10.00001 c 5.21998,-3.38998 5.55961,-13.28002 7.34961,-19 l 5.01953,-17.00001 c 2.44,-9.48998 6.01082,-22.21024 -7.36914,-25.24024 -0.68,-0.2275 -1.35102,-0.3382 -2.01758,-0.37695 z m -324.98251,0.61719 h 1 v 1 z m 112.00003,3 h 1 v 1 z m 35.00001,0 h 1 v 1 z m 185.00005,0 h 1 v 1 z m -230.00006,2 h 1 v 1 z m 81.00002,0 h 1 v 1 z m 2,1 h 1 v 1 z m -288.000081,1 h 1.000001 v 1 z m 244.000071,1 v 1 l 1,-1 z m 78.00002,0 h 1 v 1 z m -157.00005,1 h 1 v 1 z m -1,1 h 1 v 1 z m 101.00003,0 h 1 v 1 z m -221.00006,1 h 1 v 1 z m 343.0001,0 h 1 v 1 z m -95.06644,4.73633 c -1.27875,0.0812 -2.36859,1.08369 -2.93359,3.26367 -6.78998,1.17 -6.92,6.02001 -7,12.00001 l 0.7207,24 v 10.00001 c 0.07,8.13998 -1.1707,6.56002 4.2793,14 l 2,-1 c 2.34024,2.49845 7.33714,1.57986 10.74024,-1.25977 l -0.74024,-0.74023 h 1 v 0.49805 c 1.62366,-1.44285 2.87574,-3.29763 3.15039,-5.49805 v -14.00001 l 0.83985,-16.99024 v -17.00977 l -6.99024,-7 h -1 v 2 c -1.32,-1.505 -2.78766,-2.34492 -4.06641,-2.26367 z m 8.06641,60.76174 c -0.0887,0.0788 -0.16861,0.16612 -0.25976,0.24218 l 0.25976,0.25977 z m 63.00002,-60.49807 h 1 v 1 z m -222.00006,1 h 1 v 1 z m 200.00005,2 h 1 v 1 z m -309.00008,5 h 1 v 1 z m 2,0 h 1 v 1 z m 2,0 h 1 v 1 z m 2,1 h 1 v 1 z m 4,0 h 1 v 1 z m 185.00005,0 h 1 v 1 z m -108.00003,7.00001 h 1 v 1 z m 288.00008,1 h 1 v 1 z m -307.00008,1 h 1 v 1 z m 255.00007,0 h 1 v 1 z m 44.00001,0 h 1 v 1 z m -224.00006,1 h 1 v 1 z m -142.00004,4 h 1 v 1 z m 71.00002,5 h 1 v 1 z m 48.00001,9 h 1 v 1 z m 6,0 h 1 v 1 h 1 v 1 l -1,-1 z m 4,0 h 1 v 1 z m 219.00006,1 h 1 v 1 z m -372.000098,1 h 1 v 1 z m 374.000098,0 h 1 v 1 z m -216.00005,5 h 1 v 1 z m 5,0 h 1 v 1 z m 30,1 h 1.00001 v 1 z m 190.00006,0 h 1 v 1 z m 3,0 h 1 v 1 z m -195.00006,2 h 1 v 1.00001 z m 194.00006,0 h 1 v 1.00001 z m -33.00001,2.00001 h 1 v 1 h 1 v 1 l -1,-1 z m -189.00005,1 h 1 v 1 z m 192.00005,0 h 1 v 1 z m -228.00006,1 h 1 v 1 z m 56.00001,1 h 1 v 1 z m 3,0 h 1 v 1 z m 164.00005,0 h 1 v 1 z m -125.00004,1 h 1 v 1 z m -121.00003,1 v 1 l 1,-1 z m 23.00001,1 v 1 l 1,-1 z m 44.00001,0 h 1 v 1 z m -3,1 h 1 v 1 z m 17,2 h 1 v 1 z m -4,2 h 1 v 1 z m 45.00001,0 v 1 l 1,-1 z m 116.00004,1 h 1 v 1 z m -626.55877,0.64062 c -0.0101,0.16221 -0.0157,0.32274 -0.0254,0.48243 0.0637,0.0222 0.12079,0.0211 0.18359,0.041 -0.053,-0.17431 -0.10519,-0.34861 -0.1582,-0.52344 z m 625.55877,0.35938 h 1 v 1 z" />
</svg>
